<?xml version="1.0" encoding="UTF-8" standalone="no"?>
<!-- Created with Inkscape (http://www.inkscape.org/) -->

<svg
   width="461.06082mm"
   height="151.99811mm"
   viewBox="0 0 461.06082 151.99811"
   version="1.1"
   id="svg5"
   xml:space="preserve"
   inkscape:version="1.2.2 (732a01da63, 2022-12-09)"
   sodipodi:docname="The Conjuring 4 logo.svg"
   xmlns:inkscape="http://www.inkscape.org/namespaces/inkscape"
   xmlns:sodipodi="http://sodipodi.sourceforge.net/DTD/sodipodi-0.dtd"
   xmlns="http://www.w3.org/2000/svg"
   xmlns:svg="http://www.w3.org/2000/svg"><sodipodi:namedview
     id="namedview7"
     pagecolor="#ffffff"
     bordercolor="#000000"
     borderopacity="0.25"
     inkscape:showpageshadow="2"
     inkscape:pageopacity="0.0"
     inkscape:pagecheckerboard="0"
     inkscape:deskcolor="#d1d1d1"
     inkscape:document-units="mm"
     showgrid="false"
     inkscape:zoom="0.26110523"
     inkscape:cx="1143.2172"
     inkscape:cy="-183.83393"
     inkscape:window-width="1920"
     inkscape:window-height="1009"
     inkscape:window-x="-8"
     inkscape:window-y="-8"
     inkscape:window-maximized="1"
     inkscape:current-layer="layer1" /><defs
     id="defs2" /><g
     inkscape:label="Ebene 1"
     inkscape:groupmode="layer"
     id="layer1"
     transform="translate(1380.6493,-148.45148)"><rect
       style="fill:#000000;fill-opacity:1;stroke-width:1.04705;stroke-linecap:square;stroke-linejoin:round;paint-order:markers fill stroke"
       id="rect2713"
       width="464.10086"
       height="154.02475"
       x="-1382.1693"
       y="146.93149"
       ry="0.22278751" /><path
       id="path302"
       style="fill:#e21b14;fill-opacity:1;stroke-width:0.264583"
       d="m -1454.1428,-671.61718 c -0.1961,-0.21345 -0.5867,0.61558 -0.4181,0.88832 0.088,0.14281 0.244,0.0292 0.3462,-0.25218 0.1021,-0.28138 0.1345,-0.56759 0.072,-0.63614 z m 4.2266,0.0289 c -0.016,0.0454 0.06,0.14513 0.2186,0.32401 0.442,0.49933 0.8481,0.55904 0.696,0.10232 -0.061,-0.1819 -0.3243,-0.37198 -0.586,-0.42272 -0.2061,-0.04 -0.313,-0.0491 -0.3286,-0.004 z m -1.5875,0.0625 c -0.048,0.0211 -0.078,0.0728 -0.078,0.14986 0,0.15411 0.1189,0.2806 0.2645,0.2806 0.1455,0 0.2646,-0.0526 0.2646,-0.11679 0,-0.0642 -0.1191,-0.19014 -0.2646,-0.28008 -0.073,-0.0449 -0.1391,-0.0547 -0.187,-0.0336 z m 3.7553,0.7431 c -0.2474,-0.0745 -0.7545,0.10836 -0.8496,0.39378 -0.066,0.19714 0.095,0.25797 0.4414,0.16743 0.2994,-0.0783 0.5441,-0.25611 0.5441,-0.39533 0,-0.0878 -0.053,-0.14104 -0.1359,-0.16588 z m 22.441,622.787312 c -0.196,-0.21346 -0.5865,0.61506 -0.4181,0.8878 0.088,0.14279 0.2442,0.02971 0.3463,-0.25166 0.1022,-0.28138 0.1345,-0.56762 0.072,-0.63614 z m 0.5225,0.62064 c -0.048,0.02114 -0.078,0.07282 -0.078,0.14986 0,0.1541 0.119,0.28008 0.2646,0.28008 0.1455,0 0.2646,-0.05261 0.2646,-0.11679 0,-0.0642 -0.1191,-0.19015 -0.2646,-0.28008 -0.073,-0.04495 -0.1391,-0.05422 -0.187,-0.03307 z m 175.6058,208.126308 -22.5557,0.003 -22.5558,0.003 -1.0356,3.76928 c -0.5695,2.07295 -1.0884,3.91758 -1.1529,4.09949 -0.064,0.1819 0.049,0.33073 0.2517,0.33073 0.2028,0 0.8104,-0.76706 1.3498,-1.7048 0.5393,-0.93771 1.3744,-2.00552 1.8562,-2.37298 1.7408,-1.32773 2.4863,-1.47847 7.3215,-1.47847 h 4.5062 v 16.94212 c 0,19.47823 0.116,18.44708 -2.1616,19.21588 -4.3262,1.46029 -10.793,5.6251 -13.0199,8.38502 -4.9921,6.18689 -7.1694,13.58159 -6.2823,21.33823 0.2662,2.32807 0.2516,2.54283 -0.2036,2.91042 -0.2703,0.21828 -0.9292,1.29522 -1.464,2.39314 -1.0981,2.25421 -3.9138,6.12776 -5.4126,7.44554 -2.1695,1.90756 -2.9073,2.40105 -5.455,3.65094 -4.0278,1.97611 -5.3142,2.25202 -10.451,2.24172 -4.8853,-0.01 -7.2056,-0.45375 -10.7156,-2.05104 -4.0742,-1.85402 -8.0714,-5.28286 -10.6004,-9.09298 -2.6481,-3.98952 -4.8946,-9.81149 -5.9562,-15.43524 -0.5047,-2.67307 -0.5569,-3.6373 -0.4315,-7.9375 0.1904,-6.53027 1.0393,-10.31209 3.4747,-15.47812 2.792,-5.92257 6.1477,-9.46295 11.329,-11.95276 2.2862,-1.09857 4.5112,-1.78028 8.0109,-2.45566 6.175,-1.19166 11.9867,-0.24997 16.3783,2.6541 3.7994,2.51242 7.022,6.80145 8.4961,11.30835 0.4325,1.3222 0.4836,1.37174 1.4103,1.36374 0.5289,-0.005 1.1881,-0.1794 1.4645,-0.3886 0.4484,-0.33941 0.4827,-0.60226 0.3204,-2.43913 -0.5801,-6.56739 -0.9514,-11.47452 -0.9534,-12.57598 -10e-4,-0.70707 -0.1245,-1.25677 -0.2822,-1.25677 -0.1541,0 -0.2122,-0.11042 -0.1287,-0.24546 0.2027,-0.32793 -0.2153,-0.43545 -4.0891,-1.05317 -7.3023,-1.16446 -10.8106,-1.45023 -17.9917,-1.46503 -7.4178,-0.0152 -9.6354,0.18941 -14.4198,1.33016 -6.6934,1.59593 -13.6059,5.32641 -17.8914,9.65574 -4.6162,4.66351 -7.6219,10.69923 -9.1472,18.36839 -0.7336,3.68867 -0.6548,11.83235 0.1472,15.21354 1.6019,6.7535 4.3871,12.08898 8.6543,16.57831 2.7913,2.93667 7.0444,5.68514 12.4163,8.02432 5.7446,2.50148 14.1601,3.87647 22.2813,3.64009 4.8839,-0.14216 8.3069,-0.6633 14.6911,-2.23759 3.2568,-0.80309 3.9277,-1.05229 4.0711,-1.51102 0.094,-0.30208 0.5024,-1.27457 0.9069,-2.16111 0.8898,-1.95037 2.9028,-7.15095 3.0897,-7.98297 0.2495,-1.10996 0.5633,-0.87646 1.664,1.2392 0.6028,1.15866 1.372,2.40415 1.709,2.76779 0.337,0.36362 0.6545,0.78479 0.7059,0.93586 0.051,0.15111 0.9232,1.11825 1.9368,2.14922 1.7754,1.80584 4.7387,3.82308 7.2848,4.95835 3.1415,1.40073 8.6792,2.41576 13.2607,2.43086 9.7119,0.032 18.1723,-4.56099 23.6229,-12.82402 1.7599,-2.66806 2.4302,-4.27734 3.0608,-7.34891 1.3232,-6.4453 0.4427,-14.67068 -2.125,-19.84581 -1.9537,-3.9378 -5.915,-8.20627 -9.6423,-10.39058 -0.6542,-0.38338 -1.1896,-0.81767 -1.1896,-0.9648 0,-0.17515 1.7612,-0.22775 5.0933,-0.15245 3.9893,0.0902 5.3799,0.21726 6.4161,0.58601 1.9225,0.68413 3.522,2.09841 4.3362,3.83439 l 0.6909,1.47382 0.08,17.72708 c 0.081,17.96511 -0.048,21.26614 -0.8785,22.53402 -0.5168,0.78878 -1.9883,1.52645 -3.8845,1.94769 -1.6218,0.36028 -1.8187,0.56432 -1.6087,1.66295 l 0.1359,0.71055 h 8.8325 8.8326 v -1.02785 -1.02784 l -1.5167,-0.18965 c -1.6332,-0.20404 -3.6135,-1.07621 -4.3874,-1.9327 -1.2585,-1.39276 -1.327,-2.32595 -1.4355,-19.4722 -0.057,-9.06096 -6e-4,-16.21137 0.1302,-16.34215 0.1336,-0.13362 0.8444,0.47098 1.6707,1.4211 0.7908,0.90935 2.0329,2.31521 2.7605,3.12435 1.4136,1.57197 3.234,3.63423 6.766,7.66569 1.2112,1.38244 2.3273,2.64436 2.4805,2.80396 0.1532,0.15957 0.9334,1.04558 1.7337,1.96887 0.8004,0.92331 1.6338,1.86863 1.8521,2.10117 0.2183,0.23252 1.1661,1.31108 2.1064,2.39675 0.9402,1.08566 2.2499,2.5741 2.9104,3.30729 0.6604,0.73316 1.6179,1.80472 2.1275,2.38125 0.5095,0.5765 1.9383,2.18787 3.175,3.58066 1.2366,1.39279 3.894,4.39912 5.9051,6.68073 3.8442,4.36147 4.2044,4.60683 5.3991,3.67936 l 0.5886,-0.45733 0.073,-23.41563 0.072,-23.41562 0.5871,-1.09761 c 0.7698,-1.4395 2.0518,-2.19695 4.3108,-2.54662 3.2928,-0.50967 5.8647,0.54161 6.8993,2.81999 0.4699,1.0346 0.494,2.14043 0.491,22.12319 0,28.22325 -0.1931,31.44864 -2.0568,35.10174 -0.6995,1.37123 -2.3729,2.81946 -3.7269,3.22512 -1.5253,0.45696 -5.2278,0.41322 -6.6037,-0.078 -1.3492,-0.4817 -1.6206,-0.50777 -1.6206,-0.15503 0,0.44958 1.2679,1.11251 3.112,1.62678 v -0.003 c 2.3749,0.66231 6.4473,0.54723 8.4718,-0.23927 5.9398,-2.3075 10.1768,-8.46977 11.3187,-16.46256 0.1144,-0.80037 0.223,-11.09928 0.2418,-22.88646 0.034,-21.18148 0.041,-21.44572 0.5912,-22.6658 0.8502,-1.88472 1.5351,-2.20503 4.715,-2.20503 2.5196,0 2.7349,0.0435 3.6421,0.73484 0.6336,0.48287 1.0497,1.07248 1.2144,1.71979 0.1379,0.54178 0.3086,8.18825 0.3793,16.99225 0.1213,15.10155 0.1597,16.12362 0.6749,18.06504 1.3206,4.97596 4.2108,8.82199 7.9918,10.63398 1.0799,0.51753 2.105,0.8865 2.2779,0.8201 0.1729,-0.0663 0.3516,-0.016 0.3974,0.11214 0.1447,0.40508 5.2492,1.28204 8.5498,1.46865 4.8876,0.27635 8.3889,-0.49369 12.8881,-2.83446 3.3211,-1.72774 5.937,-4.63401 7.3944,-8.21551 1.5036,-3.69461 1.5688,-4.4233 1.8211,-20.27732 0.2804,-17.62083 0.2699,-17.55295 2.9673,-18.68 2.0883,-0.87257 5.8533,-0.18441 6.9225,1.26556 0.5448,0.73866 0.5512,0.96439 0.6295,20.73155 0.056,14.08789 -0.01,20.40863 -0.2191,21.42143 -0.456,2.19643 -1.0845,2.7493 -3.7218,3.2737 -2.1951,0.43651 -2.2247,0.45285 -2.3068,1.28055 l -0.083,0.8387 10.7988,-0.0692 10.7983,-0.0692 0.087,-0.60978 c 0.1201,-0.84722 -0.4012,-1.37459 -1.3585,-1.37459 -0.4456,0 -1.5081,-0.19565 -2.3616,-0.43512 -2.4986,-0.70107 -2.4375,-0.4286 -2.5306,-11.29802 l -0.079,-9.21907 2.6417,0.091 c 2.4697,0.0854 2.692,0.13982 3.4101,0.82837 0.4226,0.40511 1.3491,1.77432 2.0588,3.04271 0.7097,1.26839 2.0179,3.49643 2.9073,4.95163 0.8895,1.45521 1.7864,2.93676 1.9932,3.29231 0.8885,1.52781 3.3314,5.01781 4.4111,6.30194 1.4908,1.77313 3.9855,3.54375 6.0187,4.27106 1.5619,0.55869 1.8276,0.56656 16.4047,0.49506 l 14.8167,-0.0729 0.081,-0.84232 c 0.1,-1.03179 -0.2791,-1.26764 -2.4624,-1.53272 -0.8729,-0.10599 -1.9239,-0.36684 -2.3357,-0.57981 -1.5317,-0.79203 -1.5027,-0.32825 -1.4997,-22.6348 10e-4,-13.35212 0.097,-20.7919 0.277,-21.43952 0.4955,-1.78427 1.2029,-2.32098 3.7006,-2.80654 1.9629,-0.38161 2.2492,-0.50843 2.3233,-1.03043 l 0.085,-0.59531 h -11.0164 -11.0164 l 0.084,0.71933 c 0.09,0.77012 0.4369,0.90705 3.2097,1.26866 0.8657,0.1129 1.5435,0.40777 2.1166,0.91984 l 0.8429,0.75292 v 21.38681 c 0,20.08879 -0.029,21.43989 -0.4755,22.25859 -0.7888,1.44475 -1.8415,1.90531 -4.3635,1.90531 -2.7252,0.001 -3.6449,-0.42306 -5.6808,-2.62206 -2.8581,-3.08708 -5.0159,-6.20624 -9.7178,-14.04565 -1.7892,-2.98318 -3.4224,-5.62011 -3.6292,-5.86011 -0.339,-0.39336 -0.1843,-0.52897 1.5684,-1.37201 5.8583,-2.81771 8.829,-7.44344 8.2904,-12.90877 -0.5652,-5.73595 -3.5574,-9.64235 -8.8051,-11.49439 l -1.7932,-0.63252 -22.8203,-0.006 c -12.5512,-0.003 -22.8203,0.0744 -22.8203,0.17208 0,0.47087 0.9567,1.14567 1.6247,1.14567 1.4722,0 3.2439,0.65565 4.1129,1.5229 1.7271,1.72353 1.7789,2.24112 1.7916,17.79116 0.01,10.55168 -0.072,14.27273 -0.3369,15.47864 -1.1259,5.12484 -3.9349,9.29347 -7.3246,10.87118 -2.5186,1.17225 -4.4107,1.49054 -8.1737,1.37614 -2.9322,-0.0892 -3.7053,-0.20515 -5.0053,-0.75241 -3.7099,-1.56176 -6.094,-4.75563 -7.3355,-9.82576 -0.4962,-2.02651 -0.5514,-3.33869 -0.7013,-16.7504 -0.089,-8.00364 -0.076,-15.23827 0.029,-16.07653 0.3202,-2.54947 1.3689,-3.38681 4.7165,-3.76567 l 1.5213,-0.17208 v -1.05058 -1.05006 l -1.9182,0.13694 c -3.3291,0.23824 -32.2357,0.45151 -34.8149,0.25683 -2.0845,-0.15738 -2.4473,-0.2518 -2.3435,-0.60978 0.067,-0.23294 0.4222,-1.43787 0.788,-2.67736 0.3659,-1.23952 0.7067,-2.66827 0.7576,-3.175 0.089,-0.89056 0.063,-0.92087 -0.8124,-0.92087 -0.8696,0 -0.9342,0.0708 -1.6433,1.80092 -0.9197,2.24404 -2.1046,3.76699 -3.2142,4.13153 -0.4763,0.15648 -3.4768,0.30083 -6.8053,0.32763 -5.2,0.0419 -6.0644,-0.0102 -6.8337,-0.41186 -1.5212,-0.79415 -1.633,-1.42743 -1.633,-9.26765 v -7.00784 l 0.8987,-0.16847 c 0.4941,-0.0927 2.7439,-0.12773 4.9997,-0.078 3.5175,0.0776 4.1775,0.15877 4.6343,0.57258 0.5527,0.50067 0.6,0.63636 1.1059,3.15588 0.2884,1.43624 0.3489,1.52135 1.0805,1.52135 h 0.7747 v -6.48229 -6.48229 h -0.892 c -0.8772,0 -0.8947,0.0229 -1.0681,1.38906 -0.2491,1.96191 -0.6494,3.07088 -1.2185,3.3755 -0.274,0.14663 -2.6593,0.26252 -5.4028,0.26252 h -4.9124 v -7.96075 -7.96076 l 5.4901,0.0894 c 5.1206,0.0833 5.5749,0.13103 6.7454,0.70745 1.4629,0.72046 1.9891,1.39554 2.9217,3.74758 0.4549,1.14729 0.8424,1.74238 1.1633,1.78748 1.0412,0.14648 1.0892,-0.18383 0.5917,-4.03644 -0.2632,-2.03729 -0.485,-3.85299 -0.493,-4.0349 -0.012,-0.26172 -4.4235,-0.33073 -21.1372,-0.33073 -11.6175,0 -21.1894,0.0661 -21.2706,0.14728 -0.081,0.0812 -0.093,0.35312 -0.028,0.6041 0.084,0.32145 0.5972,0.5473 1.7364,0.76378 1.1056,0.2101 1.8325,0.52286 2.299,0.98908 l 0.6822,0.68162 0.078,7.40264 0.078,7.40317 h -10.6174 -10.6169 l 0.088,-7.2223 c 0.077,-6.26887 0.1482,-7.31333 0.5405,-7.91166 0.424,-0.64651 1.7805,-1.29684 3.4505,-1.65416 0.5564,-0.11906 0.7276,-0.30988 0.7276,-0.81184 z m 27.1156,1.88567 c 1.0245,0.0315 1.9372,0.40622 2.5632,1.07642 l 0.7483,0.80099 v 16.21089 c 0,8.91593 -0.077,16.59531 -0.1711,17.06511 -0.1129,0.56466 -0.4493,1.0238 -0.9922,1.35496 -0.8525,0.51969 -2.0361,0.59927 -3.562,0.23874 -1.1569,-0.27331 -1.6097,-0.75274 -1.9022,-2.01383 -0.3308,-1.4257 -0.3194,-31.20222 0.012,-32.39647 0.351,-1.26371 1.128,-2.04188 2.2484,-2.25206 0.36,-0.0675 0.7138,-0.0952 1.0552,-0.0848 z m -51.6681,0.54105 4.6695,0.045 c 4.293,0.0414 4.7693,0.0943 5.9102,0.65629 0.9298,0.45796 1.3775,0.8932 1.7859,1.73685 0.5312,1.09771 0.5447,1.50475 0.5302,16.19023 -0.016,16.09821 -0.04,16.41722 -1.3306,17.37361 -1.0321,0.76478 -2.348,0.76046 -6.9841,-0.0217 -3.8864,-0.65569 -4.2562,-0.76623 -4.5687,-1.36839 -0.2674,-0.51523 -0.3313,-4.10312 -0.3003,-16.79484 0.022,-8.87677 0.096,-16.51697 0.1639,-16.9783 z m 19.79,18.74305 h 10.5833 10.5834 v 7.63364 c 0,8.52967 -0.094,9.14473 -1.4826,9.72499 -0.694,0.2897 -2.5909,0.36206 -8.893,0.33796 -4.4067,-0.0169 -8.2506,-0.0882 -8.5416,-0.15865 -0.838,-0.20272 -1.6979,-1.1447 -1.9834,-2.17247 -0.1445,-0.52015 -0.2633,-4.19013 -0.264,-8.15558 z m 290.42309,16.76693 c -3.30208,-0.0546 -6.23258,0.11095 -8.11268,0.50746 -9.49483,2.00248 -15.53405,5.74551 -19.97449,12.37961 -4.39073,6.55978 -5.61576,16.05808 -3.03134,23.50709 3.48311,10.03926 11.75097,16.03475 24.06416,17.44958 h 5.2e-4 c 2.84745,0.32716 9.02989,0.34164 11.64839,0.0274 3.93617,-0.47233 9.5267,-1.61981 9.34258,-1.91771 -0.0948,-0.1534 -0.0444,-0.19795 0.11369,-0.10025 0.15656,0.0968 1.12739,0.0314 2.15749,-0.14521 2.17507,-0.37299 2.40263,-0.80635 1.05471,-2.01073 -1.08384,-0.9684 -1.27454,-2.07597 -1.28054,-7.46311 -0.008,-6.57985 0.31942,-7.36727 3.31039,-7.96179 1.77593,-0.35301 2.17366,-0.74946 1.83142,-1.8278 -0.19037,-0.59982 -1.28338,-0.64455 -15.30295,-0.62735 -7.67791,0.009 -7.76274,0.0257 -7.43262,1.42059 0.086,0.36349 0.19053,0.69479 0.23203,0.73639 0.0416,0.0415 1.43119,0.30681 3.08767,0.58962 1.65649,0.28279 3.27846,0.65569 3.60443,0.82838 0.32597,0.1727 0.83198,0.80808 1.12448,1.41231 0.46683,0.96424 0.5302,1.63014 0.5302,5.4467 -0.002,6.01254 -0.31432,6.95829 -2.6417,7.99899 -1.50611,0.6735 -5.63189,0.82498 -8.46925,0.31058 -3.741,-0.67826 -7.63727,-2.39479 -9.81697,-4.3248 -4.40902,-3.90384 -7.31572,-11.27727 -7.52254,-19.08307 -0.1596,-6.02375 0.81557,-10.50877 3.19825,-14.7097 3.52311,-6.21158 9.29392,-9.24154 17.58084,-9.23044 3.77479,0.005 5.0283,0.26666 7.70909,1.60868 1.1126,0.55698 3.72237,2.87836 4.73046,4.2075 0.52951,0.69813 1.7102,3.18473 2.10427,4.43177 0.30014,0.94969 0.36362,0.99219 1.48363,0.99219 1.39696,0 1.33551,0.51765 0.77153,-6.48229 -0.21103,-2.61937 -0.38613,-5.12823 -0.38913,-5.57538 l -0.006,-0.81338 -5.35781,-0.76895 c -3.36624,-0.48334 -7.03992,-0.75823 -10.34201,-0.81287 z m -32.17013,1.00304 c -1.32363,-0.0101 -3.06171,6.1e-4 -5.34286,0.0186 l -8.832,0.0698 0.074,0.91209 c 0.041,0.50165 0.1176,0.9552 0.1706,1.0082 0.053,0.0529 0.8277,0.19972 1.7218,0.32608 0.8941,0.12639 2.1423,0.47968 2.774,0.78548 1.7776,0.8605 2.2323,2.23011 2.5523,7.68377 0.327,5.57372 0.4516,26.19391 0.1581,26.19375 -0.199,-1.1e-4 -3.2619,-3.13698 -7.7499,-7.9375 -0.8843,-0.94588 -3.2412,-3.56526 -5.2379,-5.82083 -1.9966,-2.25557 -3.9561,-4.45823 -4.3537,-4.89479 -1.2782,-1.40327 -8.0664,-9.20054 -9.647,-11.08098 -0.8417,-1.00134 -2.3154,-2.93611 -3.2752,-4.29948 l -1.7452,-2.47892 h -7.7633 -7.7634 v 0.75138 c 0,0.72268 0.071,0.76388 1.8604,1.08365 3.1792,0.56814 5.7495,2.88999 6.18,5.58209 0.2557,1.59915 0.1421,34.60959 -0.1282,37.23029 -0.1238,1.20017 -0.4078,2.5357 -0.631,2.96726 -0.4215,0.81519 -0.7494,0.95169 -3.9739,1.65726 -1.326,0.29017 -1.6016,0.44726 -1.6738,0.9524 -0.1904,1.33217 -0.1226,1.34179 9.3685,1.36219 l 8.8418,0.0191 v -0.73381 c -0.01,-1.18457 -0.3394,-1.42086 -2.3539,-1.6738 -3.4659,-0.43518 -4.3498,-1.22907 -4.8142,-4.32066 -0.3502,-2.33135 -0.6416,-33.50028 -0.3131,-33.50028 0.4515,0 6.61,6.80623 18.0686,19.9688 1.6735,1.92236 3.7138,4.2583 4.5341,5.1909 0.8203,0.9326 2.8444,3.24332 4.4979,5.13509 1.6535,1.89177 3.1256,3.56964 3.2711,3.72897 0.1456,0.15933 1.5148,1.73657 3.0428,3.5047 v 5.1e-4 l 2.7781,3.21479 1.3229,-0.003 c 0.7276,-0.002 1.46904,-0.0954 1.64745,-0.20877 0.25152,-0.15978 0.33066,-5.20181 0.35346,-22.44618 0.0274,-20.75934 0.062,-22.36103 0.51935,-24.06519 0.51287,-1.91084 1.59854,-3.28094 2.59933,-3.28094 0.2645,0 0.55612,-0.075 0.64802,-0.16691 0.0919,-0.0919 0.58294,-0.19245 1.0914,-0.22325 1.06482,-0.0647 1.73995,-0.52929 1.73995,-1.19734 0,-0.76715 -0.2428,-0.98418 -4.2137,-1.01441 z m -227.26206,1.55081 c 6.584,-0.004 13.3372,0.0829 14.012,0.26458 1.4331,0.38589 2.7026,1.57907 3.4401,3.23288 0.6889,1.54453 0.6813,1.33663 0.8346,22.62394 0.037,5.12963 -0.01,9.32659 -0.098,9.32657 -0.1523,-8e-5 -6.8726,-6.96571 -8.1685,-8.46667 -0.3141,-0.3638 -1.1342,-1.25678 -1.8226,-1.98437 -1.3312,-1.40698 -10.0535,-10.91898 -11.6489,-12.70362 -5.972,-6.68047 -9.5482,-11.17986 -9.5482,-12.01271 0,-0.18216 6.4151,-0.27668 12.9992,-0.2806 z m -53.1146,0.57878 c 2.4853,-8.5e-4 5.1938,0.599 7.4321,1.69498 4.5029,2.20488 8.305,8.17138 10.0965,15.844 0.3992,1.70926 0.4928,3.16064 0.4878,7.54062 -0.01,5.79686 -0.271,7.73479 -1.6236,11.87835 -1.6786,5.14227 -6.7167,9.85678 -11.343,10.61434 -5.7774,0.94604 -10.911,-0.82455 -14.8441,-5.11959 -5.9245,-6.46987 -8.108,-21.85489 -4.4576,-31.4079 2.3449,-6.13657 6.3993,-9.84032 11.8665,-10.84016 0.7532,-0.13774 1.5569,-0.20436 2.3854,-0.20464 z m 170.6738,1.04955 c 0.5756,-0.0486 1.4901,-0.0391 3.0334,0.004 3.029,0.0838 3.8066,0.19418 4.9434,0.70125 2.3704,1.05736 4.2657,3.57254 5.1154,6.78874 0.3688,1.3954 0.3599,5.82704 -0.015,7.59385 -0.6365,2.99997 -2.4138,5.33219 -4.9764,6.52983 -1.3338,0.62336 -1.8099,0.69264 -5.0447,0.73794 -1.9645,0.0275 -3.7802,-0.009 -4.0349,-0.0827 -0.4311,-0.12398 -0.463,-0.86895 -0.463,-10.81071 0,-9.60489 0.044,-10.72169 0.4403,-11.11767 0.189,-0.189 0.4259,-0.29556 1.0015,-0.34416 z m 119.6082,55.64673 c -1.09302,0 -1.9842,0.0595 -1.9792,0.13229 0.005,0.0728 0.18322,0.36349 0.39687,0.64596 0.32176,0.42535 0.38861,1.89143 0.38861,8.53281 v 8.01915 h -1.28365 c -1.43316,0 -2.84661,-0.40063 -3.545,-1.00459 -0.43252,-0.37404 -0.46302,-0.31413 -0.46302,0.90692 v 1.3069 l 2.64583,-0.10646 2.64584,-0.10593 v 3.87573 c 0,2.78586 -0.10785,4.13346 -0.38344,4.79299 l -0.38344,0.91777 2.16938,-0.004 c 1.32,-0.002 2.02847,-0.0936 1.80919,-0.23255 -0.55079,-0.34893 -0.80586,-2.20081 -0.81856,-5.93969 l -0.0119,-3.39824 2.61999,0.0909 2.62051,0.091 0.14005,-1.04645 c 0.0771,-0.57552 0.0851,-1.13548 0.0181,-1.24385 -0.067,-0.1084 -0.54749,0.0543 -1.06763,0.36122 -0.66638,0.39315 -1.4259,0.56498 -2.57194,0.58188 l -1.62677,0.0243 -0.0718,-7.14375 c -0.0649,-6.44009 0.0525,-8.42773 0.57154,-9.6573 0.14031,-0.33237 -0.15498,-0.39687 -1.81953,-0.39687 z m -146.1565,8.80049 c -0.1009,-0.10795 -0.9776,1.79705 -1.9487,4.23334 -3.6787,9.22974 -5.159,12.72372 -5.7293,13.52475 l -0.5892,0.82683 h 1.6108 c 1.5766,0 1.6071,-0.0136 1.448,-0.64751 -0.1553,-0.61867 1.2084,-4.83899 1.8242,-5.64513 0.1887,-0.24708 1.0181,-0.31899 3.0525,-0.26459 l 2.7931,0.0749 0.9069,2.24069 c 0.4988,1.2322 0.9188,2.69073 0.9333,3.24114 l 0.026,1.00046 h 1.9539 1.9544 l -0.6433,-0.8599 c -0.3537,-0.47294 -0.8021,-1.27662 -0.9969,-1.78594 -0.1948,-0.50932 -0.6787,-1.69995 -1.0754,-2.64583 -0.3966,-0.94589 -1.7599,-4.27964 -3.0292,-7.40833 -1.2694,-3.12869 -2.3904,-5.77694 -2.4914,-5.88492 z m 27.2774,0.15917 c -0.5471,0.0186 -1.0175,0.0727 -1.3425,0.1602 -2.1011,0.56575 -3.4742,2.37002 -3.4742,4.56561 0,1.83246 0.6459,2.7079 3.5925,4.86998 1.5026,1.10252 2.9262,2.30104 3.1637,2.66341 0.5416,0.82661 0.5595,2.82188 0.033,3.62613 -1.27,1.93829 -5.1889,1.85931 -6.3629,-0.12815 -0.6568,-1.11197 -0.955,-0.9522 -0.955,0.51108 0,1.39918 0.4299,2.00692 1.5875,2.24534 0.9687,0.19947 3.9988,-0.0351 5.0467,-0.39068 2.2824,-0.77428 3.42,-2.39478 3.42,-4.87205 0,-1.71442 -0.5536,-3.07616 -1.555,-3.82509 -0.3817,-0.28551 -0.813,-0.61638 -0.9586,-0.73484 -0.1455,-0.11843 -1.1623,-0.82072 -2.2592,-1.56063 -2.7007,-1.8216 -3.233,-3.08802 -2.0402,-4.85293 1.0951,-1.62041 3.1595,-1.63856 4.6229,-0.0408 0.4731,0.51649 0.9282,0.87022 1.0119,0.78652 0.084,-0.0837 0.1966,-0.74519 0.2506,-1.47019 l 0.098,-1.31827 -2.0764,-0.18087 c -0.6315,-0.0551 -1.2553,-0.0723 -1.8025,-0.0537 z m 31.4312,0.0372 -6.5309,0.047 -6.5308,0.0475 -0.086,1.07694 c -0.098,1.21957 -0.058,1.24808 0.8852,0.62994 0.4726,-0.30967 1.2646,-0.45243 2.5704,-0.46303 l 1.8872,-0.0155 v 7.9375 c 0,5.98069 -0.084,8.08426 -0.34,8.53281 -0.34,0.59512 -0.3393,0.59532 1.6862,0.59532 1.8539,0 1.9952,-0.0373 1.6629,-0.43719 -0.2864,-0.3448 -0.3804,-2.16618 -0.4439,-8.63048 l -0.08,-8.19381 1.6676,0.10852 c 0.9174,0.0597 2.0736,0.31247 2.5689,0.5612 0.4953,0.24876 0.9417,0.45217 0.9921,0.45217 0.05,0 0.091,-0.50602 0.091,-1.12448 z m -87.3006,0.13229 c -1.8956,0 -1.9344,0.0133 -1.4909,0.50333 0.4141,0.45746 0.4481,1.24566 0.3721,8.69094 -0.066,6.45591 -0.1607,8.28017 -0.447,8.62479 -0.3355,0.40386 0.03,0.43719 4.8038,0.43719 h 5.1672 l 0.1844,-1.33997 c 0.2103,-1.52868 0.066,-1.82915 -0.5963,-1.24799 -1.0121,0.88752 -2.1782,1.26504 -3.9083,1.26504 -2.9907,0 -2.774,0.65832 -2.774,-8.42326 0,-5.77243 0.085,-7.96006 0.3173,-8.19278 0.2469,-0.2469 -0.1147,-0.31729 -1.6283,-0.31729 z m 150.3123,0.26355 0.3943,0.79013 c 0.3289,0.65929 0.38,2.0967 0.31,8.6651 -0.062,5.7984 -0.1734,8.03196 -0.4237,8.47029 -0.3398,0.59532 -0.3383,0.59531 1.6536,0.59531 1.9925,0 2.2848,-0.13267 1.663,-0.75396 -0.2503,-0.25001 -0.3308,-2.30747 -0.3308,-8.45323 0,-4.46762 0.098,-8.39091 0.2166,-8.71833 0.2111,-0.58132 0.1723,-0.59531 -1.6335,-0.59531 z m 49.16648,0 c -4.49482,0 -4.79902,0.0307 -4.58732,0.46302 0.12472,0.25466 0.26136,4.07202 0.30386,8.4832 0.0638,6.6279 0.0103,8.15526 -0.31006,8.7974 l -0.38809,0.77721 h 4.99763 c 5.59566,0 5.54539,0.0175 5.54539,-1.96732 0,-0.9442 -0.34776,-1.26908 -0.61443,-0.57413 -0.19151,0.49906 -2.47636,1.23057 -3.93516,1.25987 -1.16552,0.0234 -2.27459,-0.36955 -2.65617,-0.94102 -0.10694,-0.16013 -0.19544,-1.85363 -0.19844,-3.7636 l -0.004,-3.47265 0.80099,-0.1602 c 0.98091,-0.19619 3.73548,0.0657 4.08037,0.38809 0.4854,0.45368 0.67489,0.22551 0.67489,-0.8139 v -1.04904 l -2.71198,-0.0754 -2.71198,-0.0754 -0.0755,-2.88923 c -0.0558,-2.13532 0.0132,-2.94365 0.26459,-3.09904 0.18706,-0.11572 1.22267,-0.16322 2.30167,-0.10542 1.47875,0.0792 2.152,0.24575 2.73316,0.67541 0.42404,0.3135 0.80745,0.5298 0.85215,0.4806 0.0447,-0.0492 0.16498,-0.59541 0.26716,-1.21388 l 0.18552,-1.12448 z m -76.49608,0.0196 c -0.4543,0.0484 -0.4045,0.16431 -0.2197,0.38706 0.5297,0.63847 0.5837,16.83451 0.058,17.36018 -0.1819,0.18185 -0.3307,0.42567 -0.3307,0.54209 v 0.001 c 0,0.11647 0.9553,0.21187 2.1229,0.21187 h 2.1228 l -0.4692,-0.7152 c -0.4091,-0.62357 -0.4862,-1.59717 -0.6015,-7.60677 -0.073,-3.79042 -0.09,-7.39759 -0.039,-8.01605 l 0.092,-1.12448 h 1.2304 c 1.6976,10e-4 2.7751,0.71383 3.3481,2.21434 0.8939,2.34045 -0.1417,4.93719 -2.1166,5.30769 -0.5592,0.10489 -0.9276,0.32746 -0.9276,0.5612 0,0.39751 2.9501,6.25918 3.8592,7.66775 0.9152,1.41819 1.4331,1.69171 3.2184,1.70171 1.8337,0.01 2.0937,-0.28656 0.7937,-0.90434 -0.517,-0.24569 -1.15,-0.91 -1.5875,-1.66605 -0.4001,-0.69156 -1.3824,-2.38404 -2.1828,-3.76101 -0.8004,-1.37697 -1.4519,-2.62714 -1.4469,-2.77813 0,-0.151 0.5464,-0.60108 1.2035,-0.99994 1.3916,-0.84467 1.9652,-1.96174 1.9622,-3.83025 0,-1.50476 -0.6042,-2.61241 -2.003,-3.67936 -0.967,-0.73753 -1.0834,-0.75805 -4.8431,-0.85525 -1.8311,-0.0473 -2.7894,-0.0665 -3.2437,-0.0181 z m 102.95958,0.0222 c -3.23993,-0.0384 -5.27702,1.69172 -5.28702,4.48965 -0.008,2.16416 0.51315,2.92061 3.46646,5.02915 2.91231,2.07925 3.66861,3.00983 3.67161,4.51084 0.002,2.17818 -1.04157,3.12642 -3.44269,3.12642 -1.59916,0 -2.26174,-0.29146 -3.21685,-1.41438 -0.84717,-0.99602 -1.13469,-0.80677 -1.05679,0.69401 0.0403,0.7773 0.23456,1.2649 0.63821,1.60301 0.49329,0.41325 0.95797,0.47267 3.10213,0.39687 3.03514,-0.10732 4.21888,-0.60617 5.51905,-2.32647 0.85276,-1.12831 0.88738,-1.26223 0.79478,-3.09542 -0.12211,-2.41806 -0.44029,-2.86504 -3.67936,-5.16506 -3.05266,-2.16765 -3.68453,-2.86706 -3.68453,-4.0783 0,-2.73568 3.45263,-3.70665 5.28805,-1.48725 0.67198,0.81262 0.85721,0.91381 1.07228,0.58549 0.14295,-0.21828 0.22921,-0.87277 0.19121,-1.45417 -0.0613,-0.93884 -0.15801,-1.07568 -0.863,-1.22525 -0.43656,-0.0926 -1.56765,-0.17804 -2.51354,-0.18914 z m -197.90468,4.05815 c 0.2708,-0.16739 2.4564,5.34941 2.251,5.68183 -0.094,0.15155 -1.1187,0.27337 -2.2991,0.27337 h -2.1296 l 0.1747,-0.72761 c 0.2731,-1.13808 1.7895,-5.09567 2.003,-5.22759 z" /><rect
       style="fill:none;fill-opacity:1;stroke-width:1.165;stroke-linecap:square;stroke-linejoin:round;paint-order:markers fill stroke"
       id="rect2767"
       width="461.06082"
       height="151.99811"
       x="-1380.6493"
       y="148.45148"
       ry="0.22278751" /></g></svg>
